Patient4_TMGait_0pt5_02_right_31_GRF.mot
version=1
nRows=71
nColumns=19
inDegrees=no
endheader
time	F1x	F1y	F1z	M1x	M1y	M1z	F2x	F2y	F2z	M2x	M2y	M2z	EC1x	EC1y	EC1z	EC2x	EC2y	EC2z
40.49	-6.7753	713.1975	52.4654	-251.5483	-45.6818	631.92	5.6539	6.7724	-9.3054	4.7661	4.4126	7.5706	-0.0592	0.0182	-0.0073	-0.0462	0.0165	0.9585
40.5033	-1.9253	721.7143	52.4208	-253.8166	-44.1479	640.1106	3.6003	5.2001	-6.5356	3.5684	3.2583	5.8239	-0.0592	0.0182	-0.0073	-0.0462	0.0165	0.9585
40.5166	2.3237	731.1843	52.2712	-256.4508	-42.6164	648.1875	1.8801	3.8883	-4.0444	2.5171	2.1636	4.375	-0.0592	0.0182	-0.0073	-0.0462	0.0165	0.9585
40.5299	5.7867	741.1993	52.011	-259.3583	-41.1356	655.6979	0.58792	2.9108	-2.0511	1.6975	1.2508	3.2974	-0.0592	0.0182	-0.0073	-0.0462	0.0165	0.9585
40.5431	8.5266	751.3071	51.6407	-262.4056	-39.6931	662.2973	-0.29797	2.2596	-0.60718	1.1226	0.56923	2.5833	-0.0592	0.0182	-0.0073	-0.0462	0.0165	0.9585
40.5564	10.7409	760.9979	51.139	-265.4194	-38.2235	667.6663	-0.84161	1.8635	0.33872	0.7584	0.11378	2.153	-0.0592	0.0182	-0.0073	-0.0462	0.0165	0.9585
40.5697	12.6499	769.7312	50.4867	-268.2021	-36.6578	671.4952	-1.1387	1.6361	0.87462	0.55062	-0.13686	1.9207	-0.0592	0.0182	-0.0073	-0.0462	0.0165	0.9585
40.583	14.4855	776.9857	49.6646	-270.5553	-34.9229	673.5067	-1.275	1.4716	1.1076	0.43281	-0.22829	1.7694	-0.0592	0.0182	-0.0073	-0.0462	0.0165	0.9585
40.5963	16.4293	782.2985	48.6781	-272.2934	-32.9815	673.4857	-1.328	1.2566	1.1268	0.33529	-0.19929	1.5694	-0.0592	0.0182	-0.0073	-0.0462	0.0165	0.9585
40.6096	18.615	785.3071	47.5696	-273.2604	-30.8461	671.2784	-1.3513	0.8758	1.0115	0.1908	-0.088301	1.1921	-0.0592	0.0182	-0.0073	-0.0462	0.0165	0.9585
40.6229	21.1048	785.8066	46.4075	-273.3512	-28.5691	666.8548	-1.3673	0.22057	0.81689	-0.058166	0.078649	0.51484	-0.0592	0.0182	-0.0073	-0.0462	0.0165	0.9585
40.6361	23.9097	783.7697	45.2803	-272.5222	-26.234	660.3289	-1.3846	-0.78627	0.58858	-0.45217	0.27139	-0.54407	-0.0592	0.0182	-0.0073	-0.0462	0.0165	0.9585
40.6494	26.9925	779.3602	44.2806	-270.7965	-23.9369	651.9604	-1.3731	-2.178	0.35596	-1.0095	0.45859	-2.0156	-0.0592	0.0182	-0.0073	-0.0462	0.0165	0.9585
40.6627	30.2647	772.9153	43.5089	-268.2617	-21.7926	642.1357	-1.2857	-3.9027	0.15461	-1.7104	0.58989	-3.8263	-0.0592	0.0182	-0.0073	-0.0462	0.0165	0.9585
40.676	33.6042	764.9599	43.0512	-265.0797	-19.9143	631.3708	-1.0539	-5.7803	0.017786	-2.4789	0.60179	-5.7841	-0.0592	0.0182	-0.0073	-0.0462	0.0165	0.9585
40.6893	36.8596	756.2161	42.9804	-261.4924	-18.4111	620.3232	-0.59428	-7.4348	0.00073241	-3.1564	0.39963	-7.5046	-0.0592	0.0182	-0.0073	-0.0462	0.0165	0.9585
40.7026	39.8954	747.5338	43.3431	-257.7996	-17.3661	609.72	0.18959	-8.2237	0.16853	-3.474	-0.12423	-8.3264	-0.0592	0.0182	-0.0073	-0.0462	0.0165	0.9585
40.7159	42.5763	739.7397	44.1589	-254.305	-16.8372	600.2485	1.3997	-7.1868	0.60827	-3.0274	-1.097	-7.2688	-0.0592	0.0182	-0.0073	-0.0462	0.0165	0.9585
40.7291	44.8054	733.4364	45.3884	-251.243	-16.8241	592.3874	3.0996	-3.0181	1.4103	-1.2673	-2.6307	-2.9958	-0.0592	0.0182	-0.0073	-0.0462	0.0165	0.9585
40.7424	46.5044	728.8021	46.9371	-248.7018	-17.2754	586.2608	5.2803	5.8811	2.6565	2.4801	-4.7941	6.1297	-0.0592	0.0182	-0.0073	-0.0462	0.0165	0.9585
40.7557	47.6423	725.4819	48.6571	-246.5845	-18.0826	581.5452	7.7846	21.2338	4.3854	8.9407	-7.551	21.8773	-0.0592	0.0182	-0.0073	-0.0462	0.0165	0.9585
40.769	48.225	722.5516	50.36	-244.5996	-19.0937	577.461	10.2309	44.5508	6.5581	18.7501	-10.6949	45.8036	-0.0592	0.0182	-0.0073	-0.0462	0.0165	0.9585
40.7823	48.2615	718.5982	51.8297	-242.2884	-20.1384	572.8649	11.9293	76.5578	8.9807	32.2121	-13.7362	78.6636	-0.0592	0.0182	-0.0073	-0.0462	0.0165	0.9585
40.7956	47.7885	711.9241	52.8228	-239.0992	-21.0175	566.384	11.8403	116.3872	11.2338	48.9561	-15.8118	119.5862	-0.0592	0.0182	-0.0073	-0.0462	0.0165	0.9585
40.8089	46.8515	700.8893	53.1185	-234.504	-21.5484	556.7007	8.9084	160.7585	12.6801	67.5862	-15.8322	165.2281	-0.0592	0.0182	-0.0073	-0.0462	0.0165	0.9585
40.8221	45.5442	684.3287	52.5429	-228.1456	-21.5719	542.8432	3.3957	204.1925	12.4838	85.7554	-13.0746	209.9969	-0.0592	0.0182	-0.0073	-0.0462	0.0165	0.9585
40.8354	44.016	661.9457	51.0537	-219.9629	-21.0161	524.4961	-3.0165	241.0357	10.385	101.0812	-8.0369	247.9952	-0.0592	0.0182	-0.0073	-0.0462	0.0165	0.9585
40.8487	42.4578	634.3668	48.7442	-210.1975	-19.8892	502.0659	-8.924	268.6555	6.8439	112.4566	-1.8054	276.389	-0.0592	0.0182	-0.0073	-0.0462	0.0165	0.9585
40.862	41.0556	602.6889	45.8214	-199.2337	-18.2834	476.3431	-13.7031	287.9436	2.3601	120.2563	4.8336	296.0501	-0.0592	0.0182	-0.0073	-0.0462	0.0165	0.9585
40.8753	39.8993	568.0517	42.4316	-187.4529	-16.2717	448.2245	-17.321	301.7374	-2.3107	125.6925	11.1037	309.94	-0.0592	0.0182	-0.0073	-0.0462	0.0165	0.9585
40.8886	39.0136	531.4348	38.6498	-175.1693	-13.8994	418.5222	-20.0892	313.3904	-6.6627	130.1905	16.6274	321.5719	-0.0592	0.0182	-0.0073	-0.0462	0.0165	0.9585
40.9019	38.3422	493.6662	34.4744	-162.6336	-11.177	387.9558	-22.2774	325.963	-10.2256	135.0539	21.0721	334.0729	-0.0592	0.0182	-0.0073	-0.0462	0.0165	0.9585
40.9151	37.7515	455.3748	29.9487	-150.0227	-8.1761	357.0919	-24.1014	341.8492	-12.8957	141.2847	24.4368	349.8877	-0.0592	0.0182	-0.0073	-0.0462	0.0165	0.9585
40.9284	37.0529	416.9949	25.1919	-137.4433	-5.0406	326.3279	-25.6659	362.554	-14.7725	149.4982	26.8823	370.508	-0.0592	0.0182	-0.0073	-0.0462	0.0165	0.9585
40.9417	36.0216	378.791	20.4228	-124.9435	-1.9991	295.9195	-27.0243	388.5297	-16.2194	159.855	28.7954	396.3528	-0.0592	0.0182	-0.0073	-0.0462	0.0165	0.9585
40.955	34.4516	340.8818	15.8993	-112.5294	0.69458	265.9778	-28.2422	419.1642	-17.7131	172.0692	30.6752	426.7486	-0.0592	0.0182	-0.0073	-0.0462	0.0165	0.9585
40.9683	32.1723	303.3887	11.8523	-100.2154	2.8133	236.596	-29.4146	453.1771	-19.7111	185.5919	33.0128	460.3142	-0.0592	0.0182	-0.0073	-0.0462	0.0165	0.9585
40.9816	29.1228	266.5436	8.443	-88.0676	4.2173	207.9089	-30.6307	489.3362	-22.4616	199.9095	36.0873	495.7222	-0.0592	0.0182	-0.0073	-0.0462	0.0165	0.9585
40.9949	25.3382	230.7699	5.7398	-76.2284	4.8629	180.1918	-31.8606	526.8036	-25.9198	214.6997	39.8448	532.0049	-0.0592	0.0182	-0.0073	-0.0462	0.0165	0.9585
41.0081	20.9586	196.6296	3.7417	-64.8969	4.7899	153.8121	-33.0305	565.0972	-29.9069	229.7954	44.0747	568.5736	-0.0592	0.0182	-0.0073	-0.0462	0.0165	0.9585
41.0214	16.2188	164.7344	2.407	-54.2919	4.1034	129.1772	-34.0102	603.7747	-34.1364	245.0532	48.4404	604.8888	-0.0592	0.0182	-0.0073	-0.0462	0.0165	0.9585
41.0347	11.3831	135.5909	1.6606	-44.5952	2.9524	106.6366	-34.7025	642.1905	-38.3553	260.2382	52.6509	640.2653	-0.0592	0.0182	-0.0073	-0.0462	0.0165	0.9585
41.048	6.7476	109.4743	1.3807	-35.9096	1.5268	86.3599	-35.052	679.3713	-42.3284	274.9718	56.4556	673.7609	-0.0592	0.0182	-0.0073	-0.0462	0.0165	0.9585
41.0613	2.522	86.4372	1.4061	-28.2598	0.018057	68.4	-35.0203	714.0558	-45.9583	288.7451	59.7495	704.206	-0.0592	0.0182	-0.0073	-0.0462	0.0165	0.9585
41.0746	-1.089	66.3751	1.5767	-21.617	-1.3907	52.6996	-34.5741	744.8829	-49.1968	301.0033	62.473	730.368	-0.0592	0.0182	-0.0073	-0.0462	0.0165	0.9585
41.0879	-3.8859	49.1453	1.7448	-15.937	-2.5238	39.1851	-33.6526	770.5942	-52.0409	311.2331	64.6008	751.1231	-0.0592	0.0182	-0.0073	-0.0462	0.0165	0.9585
41.1011	-5.6591	34.6331	1.7999	-11.1783	-3.2244	27.7888	-32.2129	790.2566	-54.4099	319.0554	66.0423	765.6749	-0.0592	0.0182	-0.0073	-0.0462	0.0165	0.9585
41.1144	-6.2503	22.7614	1.685	-7.3106	-3.3919	18.4515	-30.2462	803.362	-56.2106	324.2646	66.7136	773.6469	-0.0592	0.0182	-0.0073	-0.0462	0.0165	0.9585
41.1277	-5.7578	13.5172	1.4223	-4.3245	-3.0732	11.1732	-27.8129	809.8228	-57.354	326.8219	66.5589	775.0852	-0.0592	0.0182	-0.0073	-0.0462	0.0165	0.9585
41.141	-4.6662	6.9098	1.0995	-2.2135	-2.4934	5.9605	-25.0452	809.8939	-57.8299	326.8227	65.619	770.3744	-0.0592	0.0182	-0.0073	-0.0462	0.0165	0.9585
41.1543	-3.4043	2.6531	0.79636	-0.87531	-1.8594	2.6178	-22.1052	804.2252	-57.6697	324.521	63.9828	760.2662	-0.0592	0.0182	-0.0073	-0.0462	0.0165	0.9585
41.1676	-2.2346	0.27671	0.54266	-0.14728	-1.2831	0.78707	-19.139	793.9674	-56.9657	320.3705	61.7916	745.9549	-0.0592	0.0182	-0.0073	-0.0462	0.0165	0.9585
41.1809	-1.2802	-0.7473	0.35189	0.1481	-0.81882	0.025317	-16.2537	780.6424	-55.8497	314.9743	59.2106	728.9294	-0.0592	0.0182	-0.0073	-0.0462	0.0165	0.9585
41.1941	-0.59607	-0.88279	0.21711	0.16591	-0.48437	-0.028306	-13.532	765.8595	-54.4896	308.9741	56.4264	710.7131	-0.0592	0.0182	-0.0073	-0.0462	0.0165	0.9585
41.2074	-0.14902	-0.51823	0.13229	0.032439	-0.26976	0.3041	-11.0076	751.1332	-53.0253	302.9793	53.5862	692.6955	-0.0592	0.0182	-0.0073	-0.0462	0.0165	0.9585
41.2207	0.082211	0.059094	0.0899	-0.15967	-0.16302	0.79669	-8.6718	737.8011	-51.5652	297.5305	50.793	676.0806	-0.0592	0.0182	-0.0073	-0.0462	0.0165	0.9585
41.234	0.14891	0.62942	0.078146	-0.34272	-0.1383	1.2539	-6.467	726.917	-50.1883	293.0561	48.1025	661.7814	-0.0592	0.0182	-0.0073	-0.0462	0.0165	0.9585
41.2473	0.09697	1.0416	0.096357	-0.46878	-0.18065	1.5436	-4.3409	719.1625	-48.9521	289.8334	45.551	650.3695	-0.0592	0.0182	-0.0073	-0.0462	0.0165	0.9585
41.2606	-0.042778	1.1937	0.12843	-0.50249	-0.26461	1.5786	-2.2532	714.829	-47.8948	287.9781	43.1667	642.0662	-0.0592	0.0182	-0.0073	-0.0462	0.0165	0.9585
41.2739	-0.23831	0.98769	0.17722	-0.4085	-0.38057	1.259	-0.16871	713.8675	-47.0401	287.4638	40.9658	636.7957	-0.0592	0.0182	-0.0073	-0.0462	0.0165	0.9585
41.2871	-0.47194	0.36409	0.22414	-0.16079	-0.50493	0.53661	1.9502	715.9162	-46.413	288.1347	38.9636	634.2177	-0.0592	0.0182	-0.0073	-0.0462	0.0165	0.9585
41.3004	-0.68641	-0.72322	0.26562	0.25769	-0.61812	-0.64065	4.1361	720.3322	-46.0222	289.7239	37.1627	633.7551	-0.0592	0.0182	-0.0073	-0.0462	0.0165	0.9585
41.3137	-0.82909	-2.2526	0.28022	0.84082	-0.68026	-2.2604	6.3985	726.2895	-45.8731	291.8893	35.5707	634.6987	-0.0592	0.0182	-0.0073	-0.0462	0.0165	0.9585
41.327	-0.81841	-4.1181	0.25132	1.5503	-0.64175	-4.2361	8.7455	732.8466	-45.9498	294.2475	34.1763	636.2491	-0.0592	0.0182	-0.0073	-0.0462	0.0165	0.9585
41.3403	-0.53353	-6.0644	0.146	2.2881	-0.42204	-6.3169	11.1542	739.021	-46.2307	296.4004	32.9703	637.5946	-0.0592	0.0182	-0.0073	-0.0462	0.0165	0.9585
41.3536	0.17138	-7.6271	-0.078593	2.8738	0.080138	-8.0178	13.6174	743.8518	-46.6799	297.962	31.928	637.934	-0.0592	0.0182	-0.0073	-0.0462	0.0165	0.9585
41.3669	1.4665	-8.0547	-0.46469	3.0178	0.97218	-8.5616	16.1178	746.518	-47.2593	298.6045	31.0241	636.5843	-0.0592	0.0182	-0.0073	-0.0462	0.0165	0.9585
41.3801	3.4866	-6.2326	-1.0517	2.2981	2.3456	-6.7822	18.6444	746.4583	-47.9299	298.1095	30.2281	633.0758	-0.0592	0.0182	-0.0073	-0.0462	0.0165	0.9585
41.3934	6.3257	-0.69882	-1.8549	0.16466	4.2483	-1.154	21.1887	743.4317	-48.6453	296.3936	29.5045	627.197	-0.0592	0.0182	-0.0073	-0.0462	0.0165	0.9585
41.4067	9.9304	10.2875	-2.8496	-4.0343	6.6302	10.1613	23.7383	737.4992	-49.3387	293.4981	28.7992	618.9956	-0.0592	0.0182	-0.0073	-0.0462	0.0165	0.9585
41.42	13.9975	28.5237	-3.9414	-10.9675	9.2753	29.0668	26.3122	728.8785	-49.9223	289.533	28.0312	608.6386	-0.0592	0.0182	-0.0073	-0.0462	0.0165	0.9585
